<svg xmlns="http://www.w3.org/2000/svg" width="16" height="16" fill="none" viewBox="0 0 16 16"><path fill="#92D3F5" d="M16 8A8 8 0 1 1 0 8a8 8 0 0 1 16 0"/><path fill="#E82CB0" d="M10.307 6.258c-.101-.072-.217-.143-.318-.215-.49-.352-.561-.64-.324-1.186a2.2 2.2 0 0 1-.994-.575c-.108-.108-.18-.244-.1-.417.071-.143.194-.194.352-.165a.34.34 0 0 0 .317-.108c.425-.46.368-.747-.187-1.02-.26-.13-.54-.194-.829-.165-.67.072-1.152.417-1.376 1.049-.216.61-.108 1.185.36 1.667.238.244.296.61.152.87-.116.193-1.348.359-1.506.193a5 5 0 0 1-.317-.38c-.339-.417-.59-.403-.872.057-.353.582-.324 1.214-.238 1.847.166 1.243.793 1.789 2.04 1.86 1.13.066 2.24-.05 3.357-.207.691-.094 1.13-.439 1.239-1.107.166-.999 0-1.459-.757-1.998m-2.241 2.43c-.332.164-.692.222-1.103.222a2 2 0 0 1-.8-.115c-.59-.194-.886-.575-.936-1.2-.014-.137-.08-.273-.1-.41-.044-.287.1-.452.352-.352.685.259 1.384.252 2.097.266.396 0 .742.122.893.546.159.446.022.826-.403 1.042m.922-4.851c-.115 0-.245-.065-.295.093-.044.115.021.201.093.288.087.107.173.071.296.05.49-.086.893-.438 1.397-.438.296 0 .339-.144.332-.324-.015-.373-.108-.445-.41-.316-.181.086-.368.137-.541.05-.216-.1-.288 0-.368.173-.1.215-.216.43-.504.424m1.34.129c-.057 0-.115.029-.166.05-.345.144-.684.31-1.116.374.374.33.706.388 1.073.13.108-.073.23-.123.346-.18.13-.072.36-.108.31-.273-.058-.18-.288-.101-.447-.101M7.467 7.22c-.663 0-1.319.007-1.953-.251-.194-.072-.28.014-.252.23.05.352.238.539.634.596.159.029.332.022.468.13-.353.064-.677-.022-1.051-.18.23.575.763.553 1.181.718l-.036.087c-.209-.036-.418-.08-.656-.115.548.452 1.888.452 2.378.014.238-.201.26-.46.173-.74-.108-.345-.375-.496-.886-.489"/><path fill="#098DC1" d="M3 11.012h.443v.116h-.018l-.038.003-.03.005q-.012.003-.012.009l.152.758-.018-.01.196-.88h.25l.19.884-.023.01.157-.749q0-.008-.012-.015a.1.1 0 0 0-.028-.01l-.037-.005h-.018v-.116h.291v.116h-.01a.1.1 0 0 0-.051.017q-.02.015-.027.049l-.185.874H3.91l-.185-.877.02.001-.193.876h-.27l-.196-.897q-.006-.027-.026-.035a.2.2 0 0 0-.051-.008H3zm1.965.561v.098a1 1 0 0 0-.116.028.3.3 0 0 0-.076.032.2.2 0 0 0-.046.035.1.1 0 0 0-.021.043.2.2 0 0 0 .005.112q.013.024.034.034t.053.01q.03 0 .056-.013a.2.2 0 0 0 .053-.046.5.5 0 0 0 .057-.085l.013.067a.5.5 0 0 1-.069.112.2.2 0 0 1-.084.064.34.34 0 0 1-.242-.001.17.17 0 0 1-.08-.07.25.25 0 0 1-.027-.123q0-.063.025-.11a.23.23 0 0 1 .084-.08.6.6 0 0 1 .15-.06 2 2 0 0 1 .231-.047m.013.495-.022-.168h-.009v-.443a.14.14 0 0 0-.01-.055.06.06 0 0 0-.033-.033.32.32 0 0 0-.19.006.2.2 0 0 0-.061.034q-.01-.006-.01-.016 0-.012.008-.024a.1.1 0 0 1 .025-.02.1.1 0 0 1 .04-.007v.18h-.198v-.199a.6.6 0 0 1 .177-.071.7.7 0 0 1 .297-.002.3.3 0 0 1 .105.045q.043.03.065.077a.3.3 0 0 1 .023.112v.424q0 .015.008.024.009.008.025.013l.043.01.01.003v.11zm.328-.694v-.116h.014a.3.3 0 0 0 .064-.006.07.07 0 0 0 .042-.026.1.1 0 0 0 .016-.06l.143.084h.316v.124zm.367.443q0 .052.014.08.016.027.042.037.028.01.066.01a.4.4 0 0 0 .103-.011v.13a1 1 0 0 1-.104.019l-.07.003a.5.5 0 0 1-.15-.021.2.2 0 0 1-.104-.076.3.3 0 0 1-.038-.158v-.553l.01-.013v-.246h.231zm.551-.152q0 .084.012.14.015.057.04.09.03.035.068.05.04.015.093.015a.2.2 0 0 0 .094-.017.2.2 0 0 0 .068-.047.3.3 0 0 0 .053-.069l.095.07a.32.32 0 0 1-.189.168.5.5 0 0 1-.149.023.5.5 0 0 1-.226-.048.34.34 0 0 1-.147-.141.5.5 0 0 1-.051-.232q0-.131.049-.228a.37.37 0 0 1 .35-.204q.096 0 .164.03a.27.27 0 0 1 .114.088q.046.06.069.149a.8.8 0 0 1 .023.205h-.6v-.104h.406l-.03.04a1 1 0 0 0-.01-.144.3.3 0 0 0-.025-.088.1.1 0 0 0-.044-.045.14.14 0 0 0-.064-.013.13.13 0 0 0-.122.067.3.3 0 0 0-.032.097 1 1 0 0 0-.01.148m1.247-.421v.24l-.031-.005-.09-.004a.3.3 0 0 0-.107.016.2.2 0 0 0-.083.055l-.005-.044q.037-.088.072-.146.036-.06.079-.09a.2.2 0 0 1 .106-.03l.037.002q.016.003.021.006m-.614.824v-.1h.004a.1.1 0 0 0 .06-.016q.023-.018.023-.068v-.467a.03.03 0 0 0-.009-.024.04.04 0 0 0-.023-.013l-.042-.012-.013-.003v-.115h.298l.025.23h.007v.47q0 .009.014.013l.037.004.045.002H7.3v.1zm1.523-.09a.3.3 0 0 0 .099-.014.1.1 0 0 0 .056-.046.2.2 0 0 0 .018-.083.13.13 0 0 0-.02-.075.15.15 0 0 0-.055-.049.4.4 0 0 0-.086-.035l-.111-.032a1 1 0 0 1-.12-.04.4.4 0 0 1-.098-.06.3.3 0 0 1-.069-.095.4.4 0 0 1-.023-.147.34.34 0 0 1 .041-.177.26.26 0 0 1 .12-.107.44.44 0 0 1 .186-.036q.094 0 .155.03.062.03.098.091.036.06.053.16l-.046-.065.025-.196h.11v.31h-.127a.3.3 0 0 0-.051-.114.2.2 0 0 0-.084-.071.24.24 0 0 0-.113-.026.2.2 0 0 0-.09.015.1.1 0 0 0-.05.045.15.15 0 0 0-.015.071q0 .044.017.072a.14.14 0 0 0 .05.044l.08.03.104.027q.067.016.127.039a.4.4 0 0 1 .108.058.25.25 0 0 1 .074.095.34.34 0 0 1 .028.147.4.4 0 0 1-.043.196.3.3 0 0 1-.128.12.5.5 0 0 1-.2.038.5.5 0 0 1-.175-.028.26.26 0 0 1-.122-.097.5.5 0 0 1-.064-.19l.046.06-.025.23h-.113v-.35h.135q.024.09.066.146a.3.3 0 0 0 .102.083q.06.026.13.026m.944.422H8.88v-.1h.004a.1.1 0 0 0 .044-.007.05.05 0 0 0 .026-.027.1.1 0 0 0 .01-.05v-.8a.03.03 0 0 0-.008-.023.04.04 0 0 0-.024-.013l-.042-.012-.011-.003v-.115h.296l.025.216.007.004v.817q0 .004.014.007l.038.005.044.001h.019zm.117-.314a.25.25 0 0 1-.117-.027.3.3 0 0 1-.091-.074.5.5 0 0 1-.069-.117l.002-.102q.036.055.067.094.03.039.064.06.033.02.078.02a.14.14 0 0 0 .073-.018.14.14 0 0 0 .05-.053.3.3 0 0 0 .03-.09.8.8 0 0 0 .001-.247.3.3 0 0 0-.027-.084.1.1 0 0 0-.046-.05.13.13 0 0 0-.068-.017.16.16 0 0 0-.08.02.3.3 0 0 0-.07.06 1 1 0 0 0-.072.109l-.002-.095a.7.7 0 0 1 .074-.13.3.3 0 0 1 .094-.081.26.26 0 0 1 .124-.029q.108 0 .18.054.075.052.112.146a.6.6 0 0 1 .038.217.6.6 0 0 1-.042.223.35.35 0 0 1-.117.155.3.3 0 0 1-.186.056m.777-1.156v.958q0 .048.021.064.023.017.062.017h.004v.1h-.415v-.1h.004a.1.1 0 0 0 .06-.017q.023-.016.023-.064v-.794q0-.016-.009-.024l-.023-.015-.042-.011-.013-.004v-.11zm.674.643v.098a1 1 0 0 0-.116.028.3.3 0 0 0-.077.032.2.2 0 0 0-.046.035.1.1 0 0 0-.02.043.2.2 0 0 0 .005.112q.013.024.033.034.023.01.053.01t.056-.013a.2.2 0 0 0 .053-.046.5.5 0 0 0 .058-.085l.012.067a.5.5 0 0 1-.068.112.2.2 0 0 1-.084.064.34.34 0 0 1-.242-.001.17.17 0 0 1-.08-.07.25.25 0 0 1-.027-.123q0-.063.025-.11a.23.23 0 0 1 .084-.08.6.6 0 0 1 .15-.06q.092-.026.23-.047m.012.495-.022-.168h-.008v-.443a.14.14 0 0 0-.01-.055.06.06 0 0 0-.034-.033.32.32 0 0 0-.19.006.2.2 0 0 0-.06.034q-.01-.006-.01-.016 0-.012.008-.024a.1.1 0 0 1 .025-.02.1.1 0 0 1 .04-.007v.18h-.198v-.199a.6.6 0 0 1 .177-.071.7.7 0 0 1 .296-.002q.062.014.105.045.044.03.066.077a.3.3 0 0 1 .022.112v.424q0 .015.009.024.008.008.025.013l.043.01.01.003v.11zm.859-.203a.1.1 0 0 0-.016-.053.1.1 0 0 0-.04-.032l-.129-.037-.096-.027a.4.4 0 0 1-.085-.043.2.2 0 0 1-.062-.07.24.24 0 0 1-.022-.11q0-.09.042-.146a.24.24 0 0 1 .117-.085.5.5 0 0 1 .18-.028.8.8 0 0 1 .292.052v.19h-.177v-.148a.1.1 0 0 1 .032.003.03.03 0 0 1 .016.014l.005.021v.024a.2.2 0 0 0-.044-.022.4.4 0 0 0-.124-.02.2.2 0 0 0-.1.023q-.03.02-.03.067 0 .03.014.049.015.017.04.03a.4.4 0 0 0 .06.02l.075.018q.048.012.098.028.048.016.087.045a.2.2 0 0 1 .065.071.2.2 0 0 1 .025.109.3.3 0 0 1-.04.155.24.24 0 0 1-.122.093.78.78 0 0 1-.524-.036v-.205h.18v.195a.1.1 0 0 1-.042-.022.1.1 0 0 1-.02-.027.04.04 0 0 1-.002-.024q.003-.01.013-.01a.4.4 0 0 0 .11.039l.08.006q.05 0 .082-.01a.1.1 0 0 0 .046-.037.1.1 0 0 0 .015-.06m.654-.935v1.025q0 .005.012.008l.026.004.028.002h.007v.1h-.402v-.1h.004a.1.1 0 0 0 .045-.008.06.06 0 0 0 .028-.025.1.1 0 0 0 .01-.052v-.79q0-.016-.009-.024a.1.1 0 0 0-.024-.015l-.042-.011-.012-.004v-.11zM13 12.068h-.4v-.1h.033q.016 0 .028-.004.01-.004.01-.009v-.468a.14.14 0 0 0-.008-.054.05.05 0 0 0-.026-.033.1.1 0 0 0-.049-.011.14.14 0 0 0-.07.019.3.3 0 0 0-.068.06 1 1 0 0 0-.073.099l.004-.11a.5.5 0 0 1 .081-.116.4.4 0 0 1 .105-.079.28.28 0 0 1 .245 0q.05.027.076.08a.3.3 0 0 1 .027.131v.41q0 .034.008.053.01.018.028.025a.1.1 0 0 0 .045.008H13z"/></svg>