<svg aria-hidden="true" style="position: absolute; width: 0; height: 0; overflow: hidden;" version="1.1" xmlns="http://www.w3.org/2000/svg" xmlns:xlink="http://www.w3.org/1999/xlink">
<defs>
<symbol id="icon-arrow" viewBox="0 0 21 32">
<path fill="#c31162" style="fill: var(--color1, #c31162)" d="M6.222 0.593v8.889h-5.926l10.37 10.37 10.37-10.37h-5.926v-8.889h-8.889zM0.296 22.815v2.963h20.741v-2.963h-20.741zM0.296 28.741v2.963h20.741v-2.963h-20.741z"></path>
</symbol>
<symbol id="icon-cloud" viewBox="0 0 38 32">
<path fill="#00a0ff" style="fill: var(--color2, #00a0ff)" d="M3.042 1.882l1.664-1.664 29.899 29.899-1.664 1.664-29.899-29.899zM2.847 12.822c-1.863 1.699-2.847 4.018-2.847 6.707 0 2.647 1.057 5.065 2.977 6.808 1.849 1.679 4.343 2.604 7.023 2.604h16.774l-18.648-18.648c-2.060 0.396-3.904 1.274-5.279 2.529zM35.043 27.12c1.704-1.357 2.604-3.371 2.604-5.826 0-4.548-3.562-7.010-7.187-7.547-0.479-3.028-1.768-5.618-3.758-7.534-2.116-2.036-4.942-3.167-7.878-3.154-2.24 0-4.331 0.634-6.108 1.838l22.266 22.269c0.018-0.016 0.042-0.030 0.062-0.046z"></path>
</symbol>
<symbol id="icon-info" viewBox="0 0 32 32">
<path fill="#32a071" style="fill: var(--color3, #32a071)" d="M16 18.016l3.040 1.978c0.293 0.201 0.587 0.194 0.88-0.021s0.4-0.509 0.32-0.882l-0.8-3.741 2.72-2.537c0.267-0.258 0.347-0.566 0.24-0.924s-0.347-0.552-0.72-0.581l-3.56-0.301-1.4-3.526c-0.133-0.344-0.373-0.516-0.72-0.516s-0.587 0.172-0.72 0.516l-1.4 3.526-3.56 0.301c-0.373 0.029-0.613 0.222-0.72 0.581s-0.027 0.667 0.24 0.924l2.72 2.537-0.8 3.741c-0.080 0.373 0.027 0.667 0.32 0.882s0.587 0.222 0.88 0.021l3.040-1.978zM6.4 27.518l-3.68 3.956c-0.507 0.545-1.087 0.667-1.741 0.366s-0.98-0.838-0.979-1.613v-26.787c0-0.946 0.314-1.755 0.941-2.428s1.38-1.010 2.259-1.011h25.6c0.88 0 1.634 0.337 2.261 1.011s0.94 1.484 0.939 2.428v20.638c0 0.946-0.313 1.756-0.939 2.43s-1.38 1.011-2.261 1.010h-22.4zM5.040 24.078h23.76v-20.638h-25.6v22.573l1.84-1.935z"></path>
</symbol>
<symbol id="icon-star" viewBox="0 0 35 32">
<path fill="#ffe000" style="fill: var(--color4, #ffe000)" d="M7.208 32l2.708-11.708-9.083-7.875 12-1.042 4.667-11.042 4.667 11.042 12 1.042-9.083 7.875 2.708 11.708-10.292-6.208-10.292 6.208z"></path>
</symbol>
</defs>
</svg>
