<svg aria-hidden="true" style="position: absolute; width: 0; height: 0; overflow: hidden;" version="1.1" xmlns="http://www.w3.org/2000/svg" xmlns:xlink="http://www.w3.org/1999/xlink">
<defs>
<symbol id="icon-back" viewBox="0 0 32 32">
<path d="M5.007 15.090l8.697-8.475c0.272-0.265 0.639-0.412 1.019-0.407s0.743 0.161 1.008 0.433c0.265 0.272 0.412 0.639 0.407 1.019s-0.161 0.743-0.433 1.008l-6.222 6.061 17.53 0.226c0.379 0.005 0.742 0.16 1.006 0.432s0.411 0.638 0.406 1.017c-0.005 0.38-0.16 0.742-0.432 1.006s-0.638 0.411-1.017 0.406l-17.53-0.226 6.061 6.223c0.265 0.272 0.412 0.639 0.407 1.019s-0.161 0.743-0.433 1.008c-0.272 0.265-0.639 0.412-1.019 0.407s-0.743-0.161-1.008-0.433l-8.475-8.697c-0.132-0.135-0.236-0.294-0.305-0.47s-0.104-0.362-0.102-0.551c0.003-0.188 0.043-0.375 0.117-0.548s0.183-0.33 0.318-0.461z"></path>
</symbol>
<symbol id="icon-close" viewBox="0 0 32 32">
<path d="M29.011 6.384c0.229-0.221 0.412-0.486 0.538-0.779s0.192-0.608 0.195-0.926-0.058-0.635-0.178-0.93c-0.121-0.295-0.299-0.563-0.524-0.788s-0.493-0.404-0.788-0.525c-0.295-0.121-0.611-0.182-0.93-0.179s-0.634 0.069-0.927 0.194-0.558 0.308-0.779 0.537l-9.619 9.616-9.616-9.616c-0.22-0.236-0.485-0.425-0.779-0.556s-0.612-0.202-0.934-0.207c-0.322-0.006-0.642 0.054-0.941 0.174s-0.57 0.3-0.798 0.528c-0.228 0.228-0.408 0.499-0.528 0.798s-0.18 0.619-0.174 0.941c0.006 0.322 0.076 0.64 0.207 0.934s0.32 0.559 0.556 0.779l9.61 9.619-9.616 9.616c-0.424 0.455-0.655 1.057-0.644 1.678s0.263 1.215 0.703 1.655c0.44 0.44 1.033 0.692 1.655 0.703s1.224-0.22 1.678-0.644l9.622-9.616 9.616 9.619c0.455 0.424 1.057 0.655 1.678 0.644s1.215-0.263 1.655-0.703c0.44-0.44 0.692-1.033 0.703-1.655s-0.22-1.224-0.644-1.678l-9.61-9.619 9.613-9.616z"></path>
</symbol>
<symbol id="icon-menu" viewBox="0 0 32 32">
<path d="M4 24v-2.667h24v2.667h-24zM4 17.333v-2.667h24v2.667h-24zM4 10.667v-2.667h24v2.667h-24z"></path>
</symbol>
<symbol id="icon-arrow" viewBox="0 0 21 32">
<path d="M6.222 0.593v8.889h-5.926l10.37 10.37 10.37-10.37h-5.926v-8.889h-8.889zM0.296 22.815v2.963h20.741v-2.963h-20.741zM0.296 28.741v2.963h20.741v-2.963h-20.741z"></path>
</symbol>
<symbol id="icon-cloud" viewBox="0 0 38 32">
<path d="M3.042 1.882l1.664-1.664 29.899 29.899-1.664 1.664-29.899-29.899zM2.847 12.822c-1.863 1.699-2.847 4.018-2.847 6.707 0 2.647 1.057 5.065 2.977 6.808 1.849 1.679 4.343 2.604 7.023 2.604h16.774l-18.648-18.648c-2.060 0.396-3.904 1.274-5.279 2.529zM35.043 27.12c1.704-1.357 2.604-3.371 2.604-5.826 0-4.548-3.562-7.010-7.187-7.547-0.479-3.028-1.768-5.618-3.758-7.534-2.116-2.036-4.942-3.167-7.878-3.154-2.24 0-4.331 0.634-6.108 1.838l22.266 22.269c0.018-0.016 0.042-0.030 0.062-0.046z"></path>
</symbol>
<symbol id="icon-info" viewBox="0 0 32 32">
<path d="M16 18.016l3.040 1.978c0.293 0.201 0.587 0.194 0.88-0.021s0.4-0.509 0.32-0.882l-0.8-3.741 2.72-2.537c0.267-0.258 0.347-0.566 0.24-0.924s-0.347-0.552-0.72-0.581l-3.56-0.301-1.4-3.526c-0.133-0.344-0.373-0.516-0.72-0.516s-0.587 0.172-0.72 0.516l-1.4 3.526-3.56 0.301c-0.373 0.029-0.613 0.222-0.72 0.581s-0.027 0.667 0.24 0.924l2.72 2.537-0.8 3.741c-0.080 0.373 0.027 0.667 0.32 0.882s0.587 0.222 0.88 0.021l3.040-1.978zM6.4 27.518l-3.68 3.956c-0.507 0.545-1.087 0.667-1.741 0.366s-0.98-0.838-0.979-1.613v-26.787c0-0.946 0.314-1.755 0.941-2.428s1.38-1.010 2.259-1.011h25.6c0.88 0 1.634 0.337 2.261 1.011s0.94 1.484 0.939 2.428v20.638c0 0.946-0.313 1.756-0.939 2.43s-1.38 1.011-2.261 1.010h-22.4zM5.040 24.078h23.76v-20.638h-25.6v22.573l1.84-1.935z"></path>
</symbol>
<symbol id="icon-star" viewBox="0 0 35 32">
<path d="M7.208 32l2.708-11.708-9.083-7.875 12-1.042 4.667-11.042 4.667 11.042 12 1.042-9.083 7.875 2.708 11.708-10.292-6.208-10.292 6.208z"></path>
</symbol>
<symbol id="icon-arrow-right" viewBox="0 0 32 32">
<path d="M4.556 15.090l8.697-8.475c0.272-0.265 0.639-0.412 1.019-0.407s0.743 0.161 1.008 0.433c0.265 0.272 0.412 0.639 0.407 1.019s-0.161 0.743-0.433 1.008l-6.222 6.061 17.53 0.226c0.38 0.005 0.742 0.16 1.006 0.432s0.411 0.638 0.406 1.017c-0.005 0.38-0.16 0.742-0.432 1.006s-0.638 0.411-1.017 0.406l-17.53-0.226 6.061 6.223c0.265 0.272 0.412 0.639 0.407 1.019s-0.161 0.743-0.433 1.008c-0.272 0.265-0.639 0.412-1.019 0.407s-0.743-0.161-1.008-0.433l-8.475-8.697c-0.132-0.135-0.236-0.294-0.305-0.47s-0.104-0.362-0.102-0.551c0.003-0.188 0.043-0.375 0.117-0.548s0.183-0.33 0.318-0.461z"></path>
</symbol>
</defs>
</svg>
