<svg width="16" height="16" viewBox="0 0 16 16" fill="none" xmlns="http://www.w3.org/2000/svg">
  <path d="M16 8C16 12.4183 12.4183 16 8 16C3.58172 16 0 12.4183 0 8C0 3.58172 3.58172 0 8 0C12.4183 0 16 3.58172 16 8Z" fill="#92D3F5" />
  <path d="M10.3065 6.25828C10.2056 6.18643 10.0904 6.11457 9.98949 6.04271C9.49955 5.69061 9.42751 5.40318 9.66527 4.85707C9.29061 4.74928 8.94478 4.56964 8.67099 4.28221C8.56292 4.17443 8.49087 4.0379 8.57012 3.86544C8.64217 3.72173 8.76466 3.67143 8.92316 3.70017C9.04565 3.72173 9.14651 3.6858 9.24018 3.59238C9.66527 3.1325 9.60763 2.84507 9.05285 2.57201C8.79348 2.44267 8.51249 2.378 8.22429 2.40674C7.55424 2.4786 7.07151 2.82351 6.84816 3.45586C6.63201 4.06664 6.74009 4.6415 7.2084 5.12294C7.44616 5.36726 7.5038 5.73373 7.35971 5.99241C7.24443 6.18643 6.01239 6.3517 5.85389 6.18643C5.73861 6.06427 5.63774 5.93493 5.53687 5.80558C5.19824 5.38881 4.94607 5.40318 4.66508 5.86307C4.31204 6.44511 4.34086 7.07746 4.42732 7.7098C4.59303 8.95293 5.21986 9.49904 6.4663 9.5709C7.59747 9.63557 8.70702 9.5206 9.82377 9.36251C10.5154 9.2691 10.9549 8.92418 11.063 8.25591C11.2287 7.2571 11.063 6.79721 10.3065 6.25828ZM8.06578 8.68706C7.73436 8.85233 7.37412 8.90981 6.96344 8.90981C6.71847 8.93137 6.43748 8.88826 6.1637 8.79484C5.5729 8.60083 5.2775 8.21999 5.22706 7.59483C5.21265 7.4583 5.14781 7.32177 5.12619 7.18524C5.08296 6.89781 5.22706 6.73254 5.47923 6.83314C6.1637 7.09183 6.86257 7.08464 7.57585 7.09901C7.97212 7.09901 8.31795 7.22117 8.46926 7.64513C8.62776 8.09064 8.49087 8.47149 8.06578 8.68706ZM8.98801 3.8367C8.87273 3.8367 8.74304 3.77203 8.69261 3.93011C8.64938 4.04508 8.71422 4.13131 8.78627 4.21754C8.87273 4.32533 8.95919 4.2894 9.08167 4.26784C9.5716 4.18161 9.97508 3.82951 10.4794 3.82951C10.7748 3.82951 10.818 3.6858 10.8108 3.50616C10.7964 3.1325 10.7028 3.06064 10.4002 3.18998C10.22 3.27621 10.0327 3.32651 9.8598 3.24028C9.64365 3.13968 9.5716 3.24028 9.49235 3.41274C9.39148 3.62831 9.2762 3.84388 8.98801 3.8367ZM10.3281 3.96604C10.2705 3.96604 10.2128 3.99478 10.1624 4.01634C9.81657 4.16006 9.47794 4.32533 9.04565 4.39C9.4203 4.72054 9.75173 4.77803 10.1192 4.51934C10.2272 4.44748 10.3497 4.39718 10.465 4.3397C10.5947 4.26784 10.8253 4.23191 10.7748 4.06664C10.7172 3.887 10.4866 3.96604 10.3281 3.96604ZM7.46778 7.22117C6.80493 7.22117 6.14929 7.22836 5.51526 6.96967C5.32073 6.89781 5.23427 6.98404 5.26309 7.19961C5.31352 7.55171 5.50085 7.73854 5.89712 7.79603C6.05562 7.82477 6.22854 7.81758 6.36543 7.92537C6.01239 7.99004 5.68817 7.90381 5.31352 7.74573C5.54408 8.32059 6.07724 8.29903 6.49512 8.4643L6.4591 8.55053C6.25015 8.5146 6.04121 8.47149 5.80345 8.43556C6.35102 8.88826 7.69113 8.88826 8.18106 8.44993C8.41882 8.24873 8.44044 7.99004 8.35398 7.7098C8.2459 7.36488 7.97933 7.21398 7.46778 7.22117Z" fill="#E82CB0" />
  <path d="M3 11.0122H3.44272V11.1282H3.42456C3.41153 11.1282 3.39896 11.1292 3.38685 11.1312C3.37475 11.1322 3.36451 11.1337 3.35613 11.1357C3.34868 11.1377 3.34496 11.1406 3.34496 11.1446L3.49718 11.9032L3.47903 11.8928L3.67455 11.0122H3.92454L4.11447 11.8972L4.09213 11.9077L4.24855 11.158C4.24855 11.152 4.24482 11.1471 4.23737 11.1431C4.23086 11.1382 4.22155 11.1347 4.20944 11.1327C4.19827 11.1297 4.1857 11.1282 4.17173 11.1282H4.15358V11.0122H4.44546V11.1282H4.43569C4.41427 11.1282 4.39705 11.1337 4.38402 11.1446C4.37098 11.1545 4.36214 11.1709 4.35748 11.1937L4.17173 12.0683H3.91057L3.72622 11.1907L3.74578 11.1922L3.55305 12.0683H3.28211L3.08659 11.1714C3.08286 11.1525 3.07448 11.1406 3.06145 11.1357C3.04841 11.1307 3.03119 11.1282 3.00978 11.1282H3V11.0122Z" fill="#098DC1" />
  <path d="M4.96538 11.573V11.6712C4.91975 11.6801 4.88111 11.6895 4.84946 11.6994C4.8178 11.7083 4.7922 11.7188 4.77265 11.7307C4.7531 11.7416 4.73773 11.7535 4.72656 11.7664C4.71632 11.7792 4.70934 11.7936 4.70561 11.8095C4.70189 11.8244 4.70002 11.8407 4.70002 11.8586C4.70002 11.8844 4.70375 11.9052 4.7112 11.921C4.71958 11.9369 4.73075 11.9483 4.74472 11.9553C4.75961 11.9622 4.7773 11.9657 4.79779 11.9657C4.81734 11.9657 4.83596 11.9612 4.85365 11.9523C4.87134 11.9424 4.88903 11.927 4.90672 11.9062C4.92534 11.8853 4.94443 11.8571 4.96398 11.8214L4.97655 11.8883C4.95607 11.9339 4.93325 11.9711 4.90812 11.9999C4.88391 12.0286 4.85598 12.05 4.82432 12.0638C4.79267 12.0777 4.75589 12.0847 4.71399 12.0847C4.66185 12.0847 4.61809 12.0772 4.58271 12.0624C4.54733 12.0475 4.52033 12.0242 4.50171 11.9924C4.48402 11.9607 4.47517 11.9201 4.47517 11.8705C4.47517 11.8278 4.48355 11.7911 4.50031 11.7604C4.518 11.7297 4.54593 11.7029 4.58411 11.6801C4.62228 11.6573 4.67209 11.6374 4.73354 11.6206C4.79592 11.6027 4.8732 11.5869 4.96538 11.573ZM4.97794 12.0683L4.9556 11.9002H4.94722V11.457C4.94722 11.4352 4.94396 11.4168 4.93744 11.4019C4.93186 11.3871 4.92069 11.3762 4.90393 11.3692C4.88717 11.3613 4.86249 11.3573 4.82991 11.3573C4.78335 11.3573 4.74472 11.3633 4.71399 11.3752C4.6842 11.3861 4.66371 11.3975 4.65254 11.4094C4.64602 11.4054 4.64276 11.4 4.64276 11.393C4.64276 11.3851 4.64556 11.3771 4.65114 11.3692C4.65673 11.3613 4.66511 11.3548 4.67628 11.3499C4.68746 11.3449 4.70096 11.3424 4.71678 11.3424V11.5224H4.51847V11.3231C4.53337 11.3132 4.55525 11.3013 4.58411 11.2874C4.6139 11.2735 4.65114 11.2616 4.69584 11.2517C4.74053 11.2408 4.79266 11.2353 4.85225 11.2353C4.90439 11.2353 4.95094 11.2403 4.99191 11.2502C5.03288 11.2591 5.06779 11.274 5.09665 11.2948C5.12552 11.3147 5.1474 11.3405 5.16229 11.3722C5.17719 11.4039 5.18464 11.4411 5.18464 11.4837V11.9077C5.18464 11.9176 5.18743 11.9255 5.19302 11.9315C5.19861 11.9374 5.20698 11.9419 5.21816 11.9448C5.23026 11.9478 5.24469 11.9513 5.26145 11.9553L5.27123 11.9582V12.0683H4.97794Z" fill="#098DC1" />
  <path d="M5.30614 11.3737V11.2577H5.32011C5.34525 11.2577 5.36666 11.2557 5.38435 11.2517C5.40297 11.2477 5.41694 11.2393 5.42625 11.2264C5.43649 11.2125 5.44161 11.1922 5.44161 11.1654L5.58546 11.2502H5.90109V11.3737H5.30614ZM5.67344 11.8169C5.67344 11.8516 5.6781 11.8784 5.68741 11.8972C5.69765 11.9151 5.71162 11.9275 5.72931 11.9344C5.74793 11.9414 5.76981 11.9448 5.79495 11.9448C5.81822 11.9448 5.83964 11.9434 5.85919 11.9404C5.87874 11.9364 5.89178 11.9339 5.89829 11.9329V12.0624C5.88712 12.0653 5.87222 12.0688 5.8536 12.0728C5.83591 12.0767 5.8159 12.0797 5.79355 12.0817C5.7712 12.0837 5.74793 12.0847 5.72372 12.0847C5.66786 12.0847 5.61805 12.0777 5.57429 12.0638C5.53053 12.05 5.49561 12.0247 5.46954 11.988C5.4444 11.9503 5.43183 11.8977 5.43183 11.8303V11.277L5.44161 11.2636V11.0182H5.67344V11.8169Z" fill="#098DC1" />
  <path d="M6.22361 11.6652C6.22361 11.7207 6.2278 11.7673 6.23618 11.805C6.24549 11.8427 6.25899 11.873 6.27668 11.8958C6.2953 11.9186 6.31765 11.9349 6.34372 11.9448C6.37072 11.9548 6.40191 11.9597 6.43729 11.9597C6.4736 11.9597 6.50479 11.9543 6.53086 11.9434C6.55693 11.9315 6.57974 11.9156 6.59929 11.8958C6.61978 11.8759 6.63747 11.8531 6.65236 11.8273L6.74733 11.8972C6.72685 11.9379 6.70078 11.9726 6.66912 12.0014C6.6384 12.0291 6.60162 12.0505 6.55879 12.0653C6.51596 12.0802 6.46615 12.0876 6.40936 12.0876C6.32277 12.0876 6.24735 12.0718 6.18311 12.04C6.1198 12.0083 6.07092 11.9612 6.03647 11.8987C6.00202 11.8353 5.98479 11.7579 5.98479 11.6667C5.98479 11.5794 6.00109 11.5036 6.03368 11.4391C6.06719 11.3747 6.11375 11.3246 6.17333 11.2889C6.23385 11.2532 6.30415 11.2353 6.38422 11.2353C6.44753 11.2353 6.502 11.2453 6.54762 11.2651C6.59417 11.2839 6.63234 11.3132 6.66214 11.3528C6.69286 11.3925 6.71567 11.4421 6.73057 11.5016C6.7464 11.5601 6.75431 11.6285 6.75431 11.7069H6.15378V11.6027H6.56019L6.53086 11.6429C6.52993 11.5844 6.5262 11.5363 6.51969 11.4986C6.5141 11.4609 6.50572 11.4317 6.49455 11.4109C6.48431 11.39 6.46988 11.3752 6.45125 11.3662C6.43356 11.3573 6.41215 11.3528 6.38701 11.3528C6.36094 11.3528 6.33767 11.3583 6.31718 11.3692C6.29763 11.3791 6.28041 11.396 6.26551 11.4198C6.25154 11.4436 6.24084 11.4758 6.23339 11.5165C6.22687 11.5561 6.22361 11.6057 6.22361 11.6652Z" fill="#098DC1" />
  <path d="M7.4693 11.2443V11.4837C7.46278 11.4818 7.45254 11.4803 7.43857 11.4793C7.42461 11.4783 7.40971 11.4773 7.39388 11.4763C7.37806 11.4753 7.36316 11.4748 7.34919 11.4748C7.32871 11.4748 7.30962 11.4763 7.29193 11.4793C7.27424 11.4813 7.25748 11.4852 7.24165 11.4912C7.22676 11.4961 7.21233 11.5031 7.19836 11.512C7.18533 11.5209 7.17229 11.5323 7.15926 11.5462L7.15367 11.5016C7.17881 11.4431 7.20302 11.3945 7.22629 11.3558C7.24957 11.3162 7.27564 11.2864 7.3045 11.2666C7.3343 11.2458 7.36968 11.2353 7.41064 11.2353C7.42554 11.2353 7.43811 11.2363 7.44835 11.2383C7.45859 11.2403 7.46557 11.2423 7.4693 11.2443ZM6.8562 12.0683V11.9686H6.86039C6.88646 11.9686 6.90648 11.9632 6.92044 11.9523C6.93534 11.9404 6.94279 11.9176 6.94279 11.8839V11.4168C6.94279 11.4069 6.93999 11.399 6.93441 11.393C6.92975 11.3871 6.92184 11.3826 6.91066 11.3796C6.89949 11.3757 6.88553 11.3717 6.86877 11.3677L6.8562 11.3647V11.2502H7.15367L7.17881 11.4793L7.18579 11.4808V11.9508C7.18579 11.9558 7.19045 11.9597 7.19976 11.9627C7.21 11.9647 7.22257 11.9662 7.23746 11.9672C7.25236 11.9681 7.26726 11.9686 7.28216 11.9686H7.29892V12.0683H6.8562Z" fill="#098DC1" />
  <path d="M8.37779 11.9776C8.41875 11.9776 8.45181 11.9731 8.47694 11.9642C8.50208 11.9543 8.5207 11.9389 8.53281 11.9181C8.54491 11.8972 8.55096 11.8695 8.55096 11.8348C8.55096 11.805 8.54445 11.7802 8.53141 11.7604C8.51838 11.7406 8.49976 11.7242 8.47555 11.7113C8.45227 11.6974 8.42387 11.6855 8.39036 11.6756C8.35684 11.6647 8.3196 11.6543 8.27863 11.6444C8.23673 11.6325 8.19716 11.6191 8.15992 11.6042C8.12268 11.5893 8.08963 11.5695 8.06076 11.5447C8.0319 11.5199 8.00909 11.4882 7.99233 11.4495C7.9765 11.4099 7.96859 11.3608 7.96859 11.3023C7.96859 11.2309 7.98255 11.1719 8.01049 11.1253C8.03842 11.0777 8.07845 11.042 8.13059 11.0182C8.18273 10.9944 8.24465 10.9825 8.31634 10.9825C8.37872 10.9825 8.43039 10.9924 8.47136 11.0122C8.51232 11.0311 8.54491 11.0613 8.56912 11.103C8.59333 11.1436 8.61102 11.1967 8.62219 11.2621L8.5761 11.1982L8.60124 11.0018H8.71017V11.3112H8.58448C8.57331 11.2666 8.55608 11.2289 8.53281 11.1982C8.51046 11.1664 8.48253 11.1426 8.44901 11.1268C8.41643 11.1099 8.37872 11.1015 8.33589 11.1015C8.29865 11.1015 8.26839 11.1064 8.24511 11.1163C8.22277 11.1263 8.20647 11.1411 8.19623 11.161C8.18599 11.1798 8.18087 11.2036 8.18087 11.2324C8.18087 11.2611 8.18645 11.2849 8.19763 11.3038C8.20973 11.3216 8.22649 11.3365 8.2479 11.3484C8.27025 11.3593 8.29679 11.3692 8.32751 11.3781C8.35917 11.3861 8.39408 11.395 8.43225 11.4049C8.47694 11.4158 8.51931 11.4287 8.55934 11.4436C8.59938 11.4575 8.63522 11.4768 8.66688 11.5016C8.69853 11.5264 8.72321 11.5581 8.7409 11.5968C8.75952 11.6355 8.76883 11.6845 8.76883 11.744C8.76883 11.8224 8.7544 11.8878 8.72554 11.9404C8.69667 11.9929 8.65431 12.0326 8.59845 12.0594C8.54351 12.0852 8.47648 12.0981 8.39734 12.0981C8.33123 12.0981 8.27304 12.0886 8.22277 12.0698C8.17342 12.051 8.13292 12.0187 8.10126 11.9731C8.07054 11.9265 8.04912 11.863 8.03702 11.7827L8.08311 11.8437L8.05797 12.0728H7.94485V11.7232H8.08031C8.09614 11.7827 8.11802 11.8313 8.14595 11.869C8.17482 11.9067 8.2088 11.9344 8.2479 11.9523C8.28794 11.9691 8.33123 11.9776 8.37779 11.9776Z" fill="#098DC1" />
  <path d="M9.32151 12.4H8.88019V12.3003H8.88438C8.90113 12.3003 8.91557 12.2979 8.92767 12.2929C8.93977 12.2879 8.94862 12.279 8.95421 12.2661C8.96072 12.2542 8.96398 12.2374 8.96398 12.2156V11.4168C8.96398 11.4069 8.96119 11.399 8.9556 11.393C8.95095 11.3871 8.94303 11.3826 8.93186 11.3796C8.92069 11.3757 8.90672 11.3717 8.88996 11.3677L8.87879 11.3647V11.2502H9.17487L9.2 11.4659L9.20699 11.4704V12.287C9.20699 12.2899 9.21164 12.2924 9.22095 12.2944C9.2312 12.2964 9.24376 12.2979 9.25866 12.2989C9.27356 12.2998 9.28845 12.3003 9.30335 12.3003H9.32151V12.4ZM9.43882 12.0862C9.39506 12.0862 9.35596 12.0772 9.32151 12.0594C9.28799 12.0415 9.25773 12.0167 9.23073 11.985C9.20466 11.9523 9.18185 11.9131 9.1623 11.8675L9.16369 11.7664C9.1879 11.803 9.21025 11.8343 9.23073 11.8601C9.25121 11.8858 9.27263 11.9057 9.29497 11.9196C9.31732 11.9334 9.34339 11.9404 9.37318 11.9404C9.40111 11.9404 9.42532 11.9344 9.4458 11.9225C9.46629 11.9106 9.48305 11.8928 9.49608 11.869C9.50912 11.8442 9.51889 11.814 9.52541 11.7783C9.53193 11.7426 9.53518 11.7004 9.53518 11.6518C9.53518 11.6052 9.53239 11.5651 9.5268 11.5313C9.52122 11.4976 9.51237 11.4699 9.50027 11.448C9.4891 11.4252 9.47373 11.4084 9.45418 11.3975C9.43556 11.3866 9.41275 11.3811 9.38575 11.3811C9.35596 11.3811 9.32942 11.3876 9.30614 11.4004C9.28287 11.4133 9.25959 11.4337 9.23632 11.4614C9.21397 11.4892 9.18976 11.5254 9.16369 11.57L9.1623 11.4748C9.18464 11.4242 9.20931 11.3811 9.23632 11.3454C9.26332 11.3097 9.29451 11.2824 9.32989 11.2636C9.36527 11.2448 9.4067 11.2353 9.45418 11.2353C9.52587 11.2353 9.58593 11.2532 9.63434 11.2889C9.68369 11.3236 9.72093 11.3722 9.74607 11.4347C9.77121 11.4971 9.78378 11.5695 9.78378 11.6518C9.78378 11.7351 9.76981 11.8095 9.74188 11.8749C9.71488 11.9404 9.67577 11.992 9.62457 12.0296C9.57336 12.0673 9.51144 12.0862 9.43882 12.0862Z" fill="#098DC1" />
  <path d="M10.2163 10.9304V11.8883C10.2163 11.9201 10.2233 11.9414 10.2373 11.9523C10.2521 11.9632 10.2726 11.9686 10.2987 11.9686H10.3029V12.0683H9.88811V11.9686H9.89229C9.91836 11.9686 9.93838 11.9632 9.95235 11.9523C9.96725 11.9414 9.97469 11.9201 9.97469 11.8883V11.094C9.97469 11.0831 9.9719 11.0752 9.96631 11.0702C9.96166 11.0643 9.95374 11.0593 9.94257 11.0554C9.9314 11.0514 9.91743 11.0474 9.90067 11.0435L9.88811 11.0405V10.9304H10.2163Z" fill="#098DC1" />
  <path d="M10.8899 11.573V11.6712C10.8443 11.6801 10.8057 11.6895 10.774 11.6994C10.7424 11.7083 10.7168 11.7188 10.6972 11.7307C10.6777 11.7416 10.6623 11.7535 10.6511 11.7664C10.6409 11.7792 10.6339 11.7936 10.6302 11.8095C10.6265 11.8244 10.6246 11.8407 10.6246 11.8586C10.6246 11.8844 10.6283 11.9052 10.6358 11.921C10.6441 11.9369 10.6553 11.9483 10.6693 11.9553C10.6842 11.9622 10.7019 11.9657 10.7224 11.9657C10.7419 11.9657 10.7605 11.9612 10.7782 11.9523C10.7959 11.9424 10.8136 11.927 10.8313 11.9062C10.8499 11.8853 10.869 11.8571 10.8886 11.8214L10.9011 11.8883C10.8806 11.9339 10.8578 11.9711 10.8327 11.9999C10.8085 12.0286 10.7805 12.05 10.7489 12.0638C10.7172 12.0777 10.6805 12.0847 10.6386 12.0847C10.5864 12.0847 10.5427 12.0772 10.5073 12.0624C10.4719 12.0475 10.4449 12.0242 10.4263 11.9924C10.4086 11.9607 10.3997 11.9201 10.3997 11.8705C10.3997 11.8278 10.4081 11.7911 10.4249 11.7604C10.4426 11.7297 10.4705 11.7029 10.5087 11.6801C10.5469 11.6573 10.5967 11.6374 10.6581 11.6206C10.7205 11.6027 10.7978 11.5869 10.8899 11.573ZM10.9025 12.0683L10.8802 11.9002H10.8718V11.457C10.8718 11.4352 10.8685 11.4168 10.862 11.4019C10.8564 11.3871 10.8453 11.3762 10.8285 11.3692C10.8117 11.3613 10.7871 11.3573 10.7545 11.3573C10.7079 11.3573 10.6693 11.3633 10.6386 11.3752C10.6088 11.3861 10.5883 11.3975 10.5771 11.4094C10.5706 11.4054 10.5673 11.4 10.5673 11.393C10.5673 11.3851 10.5701 11.3771 10.5757 11.3692C10.5813 11.3613 10.5897 11.3548 10.6009 11.3499C10.612 11.3449 10.6255 11.3424 10.6414 11.3424V11.5224H10.443V11.3231C10.4579 11.3132 10.4798 11.3013 10.5087 11.2874C10.5385 11.2735 10.5757 11.2616 10.6204 11.2517C10.6651 11.2408 10.7172 11.2353 10.7768 11.2353C10.829 11.2353 10.8755 11.2403 10.9165 11.2502C10.9574 11.2591 10.9924 11.274 11.0212 11.2948C11.0501 11.3147 11.072 11.3405 11.0869 11.3722C11.1018 11.4039 11.1092 11.4411 11.1092 11.4837V11.9077C11.1092 11.9176 11.112 11.9255 11.1176 11.9315C11.1232 11.9374 11.1316 11.9419 11.1427 11.9448C11.1548 11.9478 11.1693 11.9513 11.186 11.9553L11.1958 11.9582V12.0683H10.9025Z" fill="#098DC1" />
  <path d="M11.7594 11.8645C11.7594 11.8427 11.7542 11.8254 11.744 11.8125C11.7347 11.7986 11.7212 11.7877 11.7035 11.7797C11.6858 11.7718 11.6658 11.7654 11.6434 11.7604C11.622 11.7545 11.5992 11.7485 11.575 11.7426C11.5424 11.7346 11.5103 11.7257 11.4787 11.7158C11.4479 11.7049 11.4195 11.6905 11.3935 11.6726C11.3683 11.6548 11.3478 11.6315 11.332 11.6027C11.3171 11.574 11.3097 11.5373 11.3097 11.4927C11.3097 11.4332 11.3236 11.3846 11.3516 11.3469C11.3795 11.3082 11.4186 11.28 11.4689 11.2621C11.5201 11.2433 11.5801 11.2339 11.649 11.2339C11.704 11.2339 11.751 11.2373 11.7901 11.2443C11.8301 11.2502 11.8627 11.2577 11.8878 11.2666C11.9139 11.2745 11.9316 11.281 11.9409 11.2859V11.4763H11.7636V11.3276C11.7775 11.3266 11.7882 11.3276 11.7957 11.3305C11.8041 11.3335 11.8096 11.3385 11.8124 11.3454C11.8152 11.3514 11.8166 11.3583 11.8166 11.3662C11.8176 11.3732 11.8176 11.3811 11.8166 11.39C11.8045 11.3811 11.7901 11.3737 11.7733 11.3677C11.7566 11.3618 11.738 11.3573 11.7175 11.3543C11.697 11.3504 11.6742 11.3484 11.649 11.3484C11.6043 11.3484 11.5713 11.3558 11.5499 11.3707C11.5294 11.3846 11.5192 11.4069 11.5192 11.4376C11.5192 11.4575 11.5238 11.4738 11.5331 11.4867C11.5424 11.4986 11.5555 11.5085 11.5722 11.5165C11.5899 11.5244 11.6099 11.5313 11.6323 11.5373C11.6556 11.5432 11.6807 11.5492 11.7077 11.5551C11.7403 11.5631 11.7729 11.5725 11.8055 11.5834C11.838 11.5943 11.8674 11.6092 11.8934 11.628C11.9204 11.6459 11.9419 11.6697 11.9577 11.6994C11.9744 11.7282 11.9828 11.7644 11.9828 11.808C11.9828 11.8695 11.9693 11.921 11.9423 11.9627C11.9162 12.0043 11.8757 12.0356 11.8208 12.0564C11.7659 12.0772 11.697 12.0876 11.6141 12.0876C11.562 12.0876 11.5145 12.0837 11.4717 12.0757C11.4298 12.0688 11.3939 12.0604 11.3641 12.0505C11.3353 12.0395 11.3129 12.0296 11.2971 12.0207V11.8154H11.4773V12.0103C11.4596 12.0043 11.4456 11.9969 11.4354 11.988C11.4251 11.9791 11.4181 11.9701 11.4144 11.9612C11.4116 11.9513 11.4111 11.9434 11.413 11.9374C11.4149 11.9305 11.4191 11.927 11.4256 11.927C11.4377 11.9339 11.453 11.9409 11.4717 11.9478C11.4903 11.9548 11.5117 11.9607 11.5359 11.9657C11.5601 11.9696 11.5871 11.9716 11.6169 11.9716C11.6504 11.9716 11.6774 11.9682 11.6979 11.9612C11.7193 11.9533 11.7347 11.9414 11.744 11.9255C11.7542 11.9096 11.7594 11.8893 11.7594 11.8645Z" fill="#098DC1" />
  <path d="M12.4134 10.9304V11.9553C12.4134 11.9582 12.4172 11.9607 12.4246 11.9627C12.4321 11.9647 12.4409 11.9662 12.4511 11.9672C12.4614 11.9681 12.4707 11.9686 12.4791 11.9686H12.4861V12.0683H12.0838V11.9686H12.088C12.1057 11.9686 12.1206 11.9662 12.1327 11.9612C12.1448 11.9563 12.1541 11.9478 12.1607 11.9359C12.1672 11.923 12.1704 11.9057 12.1704 11.8839V11.094C12.1704 11.0831 12.1676 11.0752 12.1621 11.0702C12.1574 11.0643 12.1495 11.0593 12.1383 11.0554C12.1271 11.0514 12.1132 11.0474 12.0964 11.0435L12.0838 11.0405V10.9304H12.4134ZM13 12.0683H12.5992V11.9686H12.6034C12.6127 11.9686 12.6225 11.9686 12.6327 11.9686C12.6439 11.9677 12.6532 11.9662 12.6606 11.9642C12.6681 11.9612 12.6718 11.9582 12.6718 11.9553V11.4867C12.6718 11.4649 12.669 11.4471 12.6634 11.4332C12.6588 11.4183 12.6499 11.4074 12.6369 11.4004C12.6248 11.3925 12.6085 11.3885 12.588 11.3885C12.5647 11.3885 12.5415 11.395 12.5182 11.4079C12.4958 11.4208 12.473 11.4406 12.4497 11.4674C12.4265 11.4932 12.4023 11.5264 12.3771 11.567L12.3813 11.457C12.4037 11.4133 12.4307 11.3747 12.4623 11.3409C12.494 11.3072 12.5289 11.281 12.5671 11.2621C12.6062 11.2433 12.6471 11.2339 12.69 11.2339C12.7384 11.2339 12.7789 11.2433 12.8115 11.2621C12.845 11.28 12.8706 11.3067 12.8883 11.3424C12.906 11.3771 12.9148 11.4208 12.9148 11.4733V11.8839C12.9148 11.9057 12.9176 11.923 12.9232 11.9359C12.9297 11.9478 12.939 11.9563 12.9511 11.9612C12.9642 11.9662 12.9791 11.9686 12.9958 11.9686H13V12.0683Z" fill="#098DC1" />
</svg>